<svg width="17" height="17" viewBox="0 0 17 17" fill="none" xmlns="http://www.w3.org/2000/svg">
<circle cx="8.5" cy="8.5" r="8.5" fill="#18595F"/>
<path d="M6.84355 6.80013C6.81981 6.79672 6.79574 6.8015 6.77421 6.8139C6.75268 6.8263 6.7346 6.8458 6.7221 6.87007C6.7096 6.89435 6.70322 6.92239 6.70371 6.95086C6.7042 6.97933 6.71155 7.00703 6.72487 7.03067L7.34948 8.2875L6.39383 10.2955C6.38149 10.3209 6.375 10.3498 6.375 10.3791C6.375 10.4085 6.38149 10.4374 6.39383 10.4628C6.40678 10.4858 6.42452 10.5044 6.44533 10.5168C6.46613 10.5292 6.48928 10.5349 6.5125 10.5334H7.40882C7.46209 10.5311 7.51366 10.5106 7.55741 10.4743C7.60115 10.4381 7.63522 10.3876 7.65554 10.3289C7.65554 10.3289 8.59246 8.35443 8.62681 8.28007L8.0022 6.99349C7.97991 6.93743 7.94511 6.88975 7.9016 6.85565C7.85809 6.82155 7.80754 6.80234 7.75548 6.80013H6.84355ZM10.6412 5.31275C10.5885 5.31413 10.5374 5.33438 10.4945 5.37086C10.4516 5.40734 10.4189 5.45836 10.4007 5.51727L8.40508 9.74885L9.68241 12.5451C9.70382 12.6044 9.739 12.6551 9.78382 12.6913C9.82864 12.7276 9.88122 12.7478 9.93537 12.7496H10.8348C10.8578 12.7515 10.8807 12.7463 10.9015 12.7346C10.9223 12.7229 10.9402 12.705 10.9535 12.6827C10.9658 12.6573 10.9723 12.6284 10.9723 12.599C10.9723 12.5697 10.9658 12.5408 10.9535 12.5154L9.68241 9.75257L11.6687 5.54702C11.681 5.52158 11.6875 5.49272 11.6875 5.46335C11.6875 5.43398 11.681 5.40512 11.6687 5.37969C11.6552 5.35762 11.6372 5.33994 11.6165 5.32825C11.5958 5.31656 11.5729 5.31123 11.55 5.31275H10.6412Z" fill="white"/>
</svg>
