<svg width="17" height="17" viewBox="0 0 17 17" fill="none" xmlns="http://www.w3.org/2000/svg">
<circle cx="8.5" cy="8.5" r="8.5" fill="#333333"/>
<path fill-rule="evenodd" clip-rule="evenodd" d="M8.5 4.25C6.15257 4.25 4.25 6.20073 4.25 8.60758C4.25 10.5325 5.46739 12.1661 7.15648 12.7428C7.36911 12.7821 7.44581 12.648 7.44581 12.5326C7.44581 12.4291 7.4424 12.1547 7.44112 11.7917C6.25867 12.0547 6.00897 11.2071 6.00897 11.2071C5.81637 10.7038 5.53727 10.5697 5.53727 10.5697C5.15164 10.2992 5.56667 10.3053 5.56667 10.3053C5.99363 10.3359 6.21734 10.7545 6.21734 10.7545C6.59658 11.4203 7.21273 11.2281 7.45391 11.1167C7.49268 10.8349 7.60347 10.6426 7.72448 10.5338C6.78108 10.4242 5.7891 10.0502 5.7891 8.37996C5.7891 7.90505 5.95486 7.51534 6.22544 7.21127C6.1824 7.10073 6.03539 6.65729 6.26762 6.05787C6.26762 6.05787 6.62427 5.94034 7.43601 6.50394C7.78269 6.40724 8.1403 6.35788 8.49957 6.35714C8.85886 6.35774 9.21649 6.4071 9.56314 6.50394C10.3753 5.93991 10.7315 6.05787 10.7315 6.05787C10.9638 6.65729 10.818 7.10073 10.7737 7.21127C11.0464 7.51534 11.21 7.90462 11.21 8.37996C11.21 10.0546 10.2172 10.4224 9.2704 10.5303C9.42167 10.6649 9.55803 10.9305 9.55803 11.3369C9.55803 11.9197 9.55291 12.3898 9.55291 12.5326C9.55291 12.6493 9.62876 12.7847 9.84565 12.7419C11.5339 12.1643 12.75 10.5321 12.75 8.60758C12.75 6.20073 10.8474 4.25 8.5 4.25Z" fill="white"/>
</svg>
