<svg width="17" height="17" viewBox="0 0 17 17" fill="none" xmlns="http://www.w3.org/2000/svg">
<circle cx="8.5" cy="8.5" r="8.5" fill="#0A66C2"/>
<path d="M6.20639 6.03778C6.70007 6.03778 7.10028 5.63757 7.10028 5.14389C7.10028 4.65021 6.70007 4.25 6.20639 4.25C5.71271 4.25 5.3125 4.65021 5.3125 5.14389C5.3125 5.63757 5.71271 6.03778 6.20639 6.03778Z" fill="white"/>
<path d="M7.94431 6.71517V11.6745H9.48411V9.22198C9.48411 8.57485 9.60585 7.94815 10.4082 7.94815C11.1996 7.94815 11.2094 8.68801 11.2094 9.26283V11.6749H12.75V8.9552C12.75 7.61927 12.4624 6.59261 10.9009 6.59261C10.1513 6.59261 9.64875 7.00401 9.44325 7.39335H9.42242V6.71517H7.94431ZM5.43505 6.71517H6.9773V11.6745H5.43505V6.71517Z" fill="white"/>
</svg>
