<svg width="17" height="17" viewBox="0 0 17 17" fill="none" xmlns="http://www.w3.org/2000/svg">
<circle cx="8.5" cy="8.5" r="8.5" fill="#1DA1F2"/>
<path d="M11.8767 6.90126C11.8824 6.97115 11.8824 7.04064 11.8824 7.11014C11.8824 9.23687 10.1293 11.6875 6.92561 11.6875C5.93858 11.6875 5.02163 11.4235 4.25 10.965C4.39014 10.9798 4.52509 10.985 4.67085 10.985C5.45501 10.9867 6.21697 10.7446 6.83391 10.2976C6.47034 10.2916 6.1179 10.1808 5.82579 9.98082C5.53369 9.78084 5.31652 9.50162 5.20458 9.18215C5.31228 9.19693 5.42042 9.20691 5.53374 9.20691C5.68988 9.20691 5.84689 9.18694 5.99265 9.1522C5.59808 9.07864 5.24328 8.88115 4.98859 8.59333C4.73389 8.30551 4.59502 7.94511 4.59559 7.57342V7.55346C4.82785 7.67287 5.09732 7.74756 5.38279 7.75754C5.14364 7.6108 4.94754 7.41168 4.812 7.17795C4.67645 6.94421 4.60567 6.68314 4.60597 6.418C4.60597 6.11926 4.69204 5.84528 4.84299 5.60645C5.28077 6.10369 5.82677 6.51048 6.44565 6.80048C7.06452 7.09047 7.74246 7.2572 8.43555 7.28986C8.40874 7.17004 8.3923 7.04584 8.3923 6.92123C8.39219 6.70994 8.43717 6.5007 8.52469 6.30547C8.6122 6.11024 8.74053 5.93286 8.90233 5.78345C9.06413 5.63405 9.25624 5.51555 9.46766 5.43474C9.67909 5.35393 9.90569 5.3124 10.1345 5.3125C10.6362 5.3125 11.0891 5.5066 11.4074 5.82052C11.7975 5.75087 12.1715 5.6194 12.513 5.43192C12.383 5.80367 12.1106 6.1189 11.747 6.31855C12.0929 6.28212 12.431 6.19812 12.75 6.06934C12.5117 6.39008 12.2165 6.67135 11.8767 6.90126Z" fill="white"/>
</svg>
